<svg width="24" height="24" viewBox="0 0 24 24" fill="none" xmlns="http://www.w3.org/2000/svg">
<path d="M19.9858 6.59147C19.9429 6.1422 19.8047 5.73632 19.5378 5.3815C19.3019 5.06752 18.9993 4.84288 18.7133 4.59017C18.5703 4.46509 18.1915 4.12558 18.1438 3.93413C18.0866 3.70184 18.1748 3.46444 18.3726 3.38786C18.6704 3.28065 19.1684 3.2832 19.4568 3.30362C19.7022 3.32404 19.9548 3.23215 19.9643 3.12493C19.9739 3.01772 19.8285 2.85946 19.6355 2.81095C19.483 2.77266 19.2495 2.71395 19.1089 2.6144C18.8587 2.43316 18.6037 2.10131 18.2558 2.02728C17.7602 1.92262 17.4147 2.12173 17.2526 2.57866C16.9953 3.23215 17.1621 4.06942 17.703 4.68207C17.946 4.95775 18.2296 5.19515 18.5012 5.44276C18.7014 5.62656 18.8777 5.82822 19.0469 6.05285C19.4997 6.65784 19.0207 7.76825 18.9063 7.89588C18.506 8.34005 18.1581 8.42173 17.4671 8.3911C16.788 8.36047 15.027 7.38535 14.0953 7.35472C11.7887 7.27814 10.1874 8.41918 9.64651 8.71529C8.83633 9.15946 7.68302 9.18754 7.64728 9.2003C7.12543 9.24369 6.04361 9.28709 5.50746 9.4862C4.7521 9.71083 4.34462 10.081 4.06821 10.908C3.98243 11.2654 3.96575 11.5896 4.08728 11.7862C4.35177 12.215 5.06425 12.5724 5.38832 12.7689C5.55512 12.871 5.88396 12.7434 5.9483 12.6949C6.31049 12.432 6.6298 12.2252 7.05871 12.1588C7.14926 12.1435 7.75451 12.0287 8.05952 12.2686C8.28112 12.4422 8.47175 12.5469 8.72195 12.6694C9.17946 12.8915 10.1874 13.1723 10.2065 13.1774C10.3423 13.2157 10.5163 13.2897 10.5163 13.4199C10.5163 13.6037 8.91497 15.0383 8.8268 15.074C8.4241 15.2501 8.19057 15.5335 8.11671 15.9419C8.09288 16.0747 8.03807 16.2125 7.96897 16.3223C7.70924 16.7256 6.55831 18.4767 6.2533 18.9566C6.10795 19.1813 5.95783 19.2936 5.75052 19.3293C5.45266 19.3804 5.22867 19.388 5.10238 19.6152C5.02374 19.7607 5.07378 20.0441 5.12621 20.2279C5.18578 20.4372 5.02374 20.6975 5.01183 20.7282C4.86886 21.0268 4.80928 21.3127 4.83073 21.6012C4.83788 21.7186 4.84503 21.9918 5.02613 21.9994C5.20722 22.0096 5.25488 21.8845 5.27633 21.8386C5.30254 21.7824 5.40262 21.5501 5.43121 21.494C5.54797 21.2617 5.99357 20.7614 6.04361 20.7027C6.20326 20.5138 8.58613 16.9987 8.58613 16.9987C8.71719 16.8149 8.85301 16.626 9.07462 16.5341C9.38201 16.4065 9.58693 16.1436 9.64651 15.7964C9.6608 15.7198 10.6116 14.9387 11.0167 14.6094C11.1644 14.4894 12.0604 14.104 12.0746 14.1091C12.0746 14.1168 11.2549 15.439 11 16.141C10.9595 16.2533 10.8927 16.6362 10.9666 16.8302C11.081 17.1289 11.3264 17.2591 11.6052 17.1697C11.691 17.1417 11.7673 17.0957 11.8411 17.0523C11.8745 17.0319 11.9078 17.014 11.9412 16.9962C11.9746 16.9783 12.0055 16.9604 12.0389 16.9426C12.1152 16.8992 12.189 16.8583 12.2629 16.8328C12.5369 16.7358 12.8133 16.6439 13.0898 16.552L13.6497 16.3657C14.0405 16.2355 14.4313 16.1053 14.8221 15.9776C14.9079 15.9496 14.9913 15.9164 15.0985 15.9189C15.1581 15.9189 15.2224 15.9445 15.2439 16.0389C15.2439 16.044 15.2891 16.3299 15.4536 16.4448C15.537 16.5035 15.7157 16.5494 15.8491 16.5443C15.9659 16.5392 16.1136 16.575 16.1899 16.6465L16.2876 16.7358C16.359 16.7996 16.4472 16.8353 16.5068 16.8532C16.5687 16.8711 16.6831 16.8711 16.7498 16.7971C16.8213 16.7154 16.7951 16.5826 16.7856 16.5418C16.7713 16.4856 16.7427 16.4422 16.7212 16.4039L16.6617 16.3044C16.6045 16.2074 16.5497 16.1104 16.4901 16.0134C16.3257 15.7454 16.1636 15.4799 15.9968 15.2144C15.8229 14.9387 15.5536 14.8289 15.201 14.8877C15.0651 14.9106 12.0842 15.9011 12.0627 15.9062C12.2224 15.5922 13.1779 14.178 13.4448 13.9993C13.6426 13.8742 13.726 13.7543 14.0858 13.6879C14.7887 13.5603 16.3138 13.1825 16.6926 12.8889C17.429 12.3171 17.4885 11.0178 17.4766 10.7574C17.4623 10.4971 17.5409 10.3184 17.753 10.1984C17.8579 10.1397 18.9921 9.46833 19.5473 8.47789C19.8809 7.89844 20.0525 7.27814 19.9858 6.59147Z" fill="#989898"/>
</svg>
